<svg width="751" height="795" viewBox="0 0 751 795" fill="none" xmlns="http://www.w3.org/2000/svg">
<path d="M716.825 196.877C716.825 165.191 704.237 134.803 681.832 112.398C659.426 89.9928 629.038 77.4049 597.353 77.4049H404.05C376.113 148.25 328.015 304.802 324.485 452.885H409.614C419.04 452.886 426.681 460.526 426.681 469.952C426.681 552.522 432.965 679.913 456.307 760.096H597.353C629.038 760.096 659.426 747.508 681.832 725.103C704.237 702.698 716.825 672.31 716.825 640.624V196.877ZM144.134 524.022C151.976 518.792 162.573 520.909 167.804 528.751C187.828 558.772 259.021 623.557 375.479 623.557C384.905 623.557 392.545 631.198 392.546 640.624C392.546 650.05 384.905 657.692 375.479 657.692C246.169 657.692 164.917 585.94 139.406 547.692C134.175 539.85 136.293 529.253 144.134 524.022ZM170.672 333.414V265.145C170.672 255.719 178.313 248.079 187.739 248.078C197.165 248.078 204.807 255.719 204.807 265.145V333.414C204.807 342.84 197.165 350.482 187.739 350.482C178.313 350.482 170.672 342.839 170.672 333.414ZM34.1335 640.624C34.1335 672.31 46.7214 702.698 69.1265 725.103C91.5317 747.508 121.92 760.096 153.605 760.096H420.89C399.762 680.331 393.409 566.322 392.632 487.019H307.211C297.785 487.019 290.142 479.378 290.142 469.952C290.142 319.471 337.065 158.509 367.486 77.4049H153.605C121.92 77.4049 91.5316 89.9928 69.1265 112.398C46.7214 134.803 34.1335 165.191 34.1335 196.877V640.624ZM750.958 640.624C750.958 681.363 734.776 720.434 705.969 749.24C677.163 778.047 638.091 794.229 597.353 794.229H444.122C443.971 794.233 443.82 794.23 443.669 794.229H153.605C112.867 794.229 73.7955 778.047 44.9889 749.24C16.1823 720.434 0 681.363 0 640.624V196.877C0 156.138 16.1823 117.067 44.9889 88.2603C73.7955 59.4537 112.867 43.2714 153.605 43.2714H392.314C392.438 43.2696 392.562 43.2704 392.687 43.2714H597.353C638.091 43.2714 677.163 59.4537 705.969 88.2603C734.776 117.067 750.958 156.138 750.958 196.877V640.624Z" fill="black"/>
<path d="M588.521 77.0185C592.995 69.9956 602.308 67.9345 609.321 72.4146C616.335 76.8951 618.394 86.2204 613.919 93.2435L563.641 172.156C674.835 231.441 750.07 340.997 750.07 467.621C750.07 475.951 743.325 482.704 735.007 482.705H373.956V452.537H719.536C713.574 340.407 641.502 242.825 536.661 192.184C535.897 191.893 535.148 191.533 534.42 191.108C486.599 168.415 432.071 155.454 373.956 155.254V125.086C431.961 125.273 487.069 137.388 536.33 158.936L588.521 77.0185Z" fill="black"/>
<path fill-rule="evenodd" clip-rule="evenodd" d="M525.546 250.796C560.732 250.796 589.256 279.359 589.256 314.592C589.256 349.826 560.732 378.388 525.546 378.389C490.359 378.389 461.833 349.826 461.832 314.592C461.833 279.358 490.359 250.796 525.546 250.796ZM525.546 280.964C506.998 280.964 491.96 296.02 491.96 314.592C491.96 333.165 506.998 348.22 525.546 348.221C544.093 348.22 559.129 333.165 559.129 314.592C559.128 296.02 544.093 280.964 525.546 280.964Z" fill="black"/>
<path d="M654.039 2.36904C647.025 -2.11103 637.713 -0.0499581 633.238 6.97299L581.047 88.8907L608.358 102.111L658.637 23.198C663.111 16.1748 661.053 6.8496 654.039 2.36904Z" fill="black"/>
</svg>
